<?xml version="1.0" encoding="utf-8"?>
<!-- Generator: Adobe Illustrator 19.0.0, SVG Export Plug-In . SVG Version: 6.00 Build 0)  -->
<svg version="1.1" id="layer" xmlns="http://www.w3.org/2000/svg" xmlns:xlink="http://www.w3.org/1999/xlink" x="0px" y="0px"
	 viewBox="-153 -46 652 652" style="enable-background:new -153 -46 652 652;" xml:space="preserve">
<style type="text/css">
	.st0{fill:#E50038;}
</style>
<path class="st0" d="M-27.6,249.2h22.5v63.3h-22.5V249.2z M24.5,281.1c-0.7-0.7-1-1.8-0.9-2.9c0.1-0.8,0.5-1.5,1.1-2l28.6-26.9H26.8
	L1.6,274c-1.3,1.3-2.3,3.1-2.3,5.2c0,2,1,3.9,2.3,5.1l27.2,28.2h27.5L24.5,281.1z M102.3,249.3c24.4,0,29.5,11.7,29.5,21.4v41.9
	H85.6c-18.3,0-29.4-7-29.4-20s11.1-20,29.4-20h23.8v-1.2c0-8.9-2.7-13.2-14.6-13.2H60.8v-9H102.3 M109.5,303.6v-22H94.8
	c-9.9,0-15.6,2.9-15.6,11c0,8.1,5.7,11,15.6,11H109.5z M-81.9,247.4c26.5,0,44.7,10.9,44.7,33.6c0,22.7-18.2,33.5-44.7,33.5
	c-26.5,0-44.7-12.4-44.7-33.5S-108.4,247.4-81.9,247.4 M-81.9,305.5c13.9,0,21.7-9.4,21.7-24.6s-7.8-24.6-21.7-24.6
	c-13.9,0-21.7,10.8-21.7,24.6C-103.6,294.8-95.9,305.5-81.9,305.5 M167,258.3h18.8v54.3h22.5v-54.3h4.8c11.9,0,14,4.2,14,12.9v41.5
	h22.5v-41.9c0-9.8-5.1-21.4-29.5-21.4h-75.6v63.3H167V258.3z M290.7,312.6h46.1v-63.3h-22.5v54.3H298c-12,0-14.3-4.1-14.3-12.8
	v-41.5h-22.5v42C261.2,305.4,271.2,312.6,290.7,312.6 M443.8,249.3c24.4,0,29.5,11.7,29.5,21.4v41.9H427c-18.3,0-29.4-7-29.4-20
	c0-13,11.1-20,29.4-20h23.8v-1.2c0-8.9-2.7-13.2-14.6-13.2h-33.9v-9H443.8 M450.9,303.6v-22h-14.7c-9.9,0-15.6,2.9-15.6,11
	c0,8.1,5.7,11,15.6,11H450.9z M349.5,270.7v41.9h22.5v-41.2c0-8.9,2.7-13.2,14.6-13.2h10.2v-9H379
	C354.6,249.3,349.5,261,349.5,270.7"/>
</svg>
