<?xml version="1.0" encoding="UTF-8"?>
<svg id="Layer_1" data-name="Layer 1" xmlns="http://www.w3.org/2000/svg" viewBox="0 0 960 960">
  <defs>
    <style>
      .cls-1 {
        stroke-width: 0px;
      }
    </style>
  </defs>
  <path class="cls-1" d="M169,431.2h34.76v97.63h-34.76v-97.63ZM249.48,480.33c-1.15-1.15-1.57-2.76-1.35-4.47.14-1.21.82-2.27,1.69-3.1l44.26-41.56h-41.08l-38.95,38.24c-2.07,2.01-3.54,4.79-3.54,7.97s1.61,5.96,3.52,7.93l42.03,43.5h42.55l-49.13-48.49v-.02ZM358.08,515.03c-15.25,0-24.14-4.45-24.14-17s8.87-17,24.14-17h22.77v34h-22.77ZM369.85,431.26h-64.14v13.8h52.43c18.43,0,22.61,6.5,22.61,20.32v1.79h-36.82c-28.35,0-45.45,10.78-45.45,30.86s17.1,30.86,45.45,30.86h71.56v-64.58c0-15.07-7.95-33.05-45.65-33.05M84.97,517.99c-21.51,0-33.56-16.56-33.56-37.9s12.03-38,33.56-38,33.56,14.69,33.56,38-12.03,37.9-33.56,37.9M84.97,428.3c-40.92,0-69.15,19.19-69.15,51.8s28.13,51.68,69.15,51.68,69.15-16.72,69.15-51.68-28.25-51.8-69.15-51.8M469.77,445.1h29.13v83.81h34.76v-83.81h7.44c18.43,0,21.67,6.44,21.67,19.86v63.96h34.74v-64.6c0-15.07-7.93-33.05-45.65-33.05h-116.89v97.65h34.74v-83.81h.04ZM661.04,528.91h71.3v-97.63h-34.74v83.77h-25.29c-18.49,0-22.13-6.38-22.13-19.82v-63.96h-34.74v64.78c0,21.81,15.33,32.87,45.63,32.87h-.02v-.02ZM885.9,515.07c-15.25,0-24.14-4.45-24.14-17s8.87-17,24.14-17h22.77v34h-22.77ZM897.65,431.28h-64.14v13.82h52.41c18.43,0,22.61,6.5,22.61,20.3v1.79h-36.8c-28.35,0-45.45,10.78-45.45,30.86s17.1,30.86,45.45,30.86h71.56v-64.58c0-15.09-7.95-33.07-45.65-33.07v.02ZM751.79,464.35v64.6h34.76v-63.53c0-13.78,4.16-20.3,22.59-20.3h15.79v-13.82h-27.5c-37.72,0-45.65,17.97-45.65,33.05"/>
</svg>